<svg width="193" height="39" viewBox="0 0 193 39" fill="none" xmlns="http://www.w3.org/2000/svg">
<path d="M49.945 0H43.0816V38.4646H49.945V0Z" fill="black"/>
<path d="M103.85 0H96.9869V38.4646H103.85V0Z" fill="black"/>
<path d="M131.335 0H124.471V38.4646H131.335V0Z" fill="black"/>
<path d="M49.484 0.000729776V6.86418H77.8262V0.000729776H49.484Z" fill="black"/>
<path d="M81.64 0.00056769V6.86402H119.198V0.00056769H81.64Z" fill="black"/>
<path d="M49.6621 15.7996V22.663H74.6681V15.7996H49.6621Z" fill="black"/>
<path d="M49.9468 31.6014V38.4649H77.7746V31.6014H49.9468Z" fill="black"/>
<path d="M35.1081 0V29.6291C35.0369 30.3427 34.9109 30.9973 34.7442 31.5991H28.2426V0H35.1081Z" fill="black"/>
<path d="M6.86142 25.3008V31.5991H0.404569C0.0548913 30.4545 0 29.6291 0 29.6291V25.3008H6.86142Z" fill="black"/>
<path d="M29.6535 37.4766C27.4782 38.4382 25.4411 38.4626 25.2175 38.4626C25.2033 38.4626 25.1972 38.4626 25.1972 38.4626H9.82555C7.65836 38.4077 5.96689 37.8974 4.6495 37.1411V31.5971H29.6535V37.4766Z" fill="black"/>
<path d="M24.8922 31.6011C24.8922 31.6011 28.2426 31.9813 28.2426 28.757C29.5946 29.0802 28.8301 32.3717 28.8301 32.3717L24.8922 31.6011Z" fill="black"/>
<path d="M6.86345 28.576C6.86345 28.576 6.68048 31.5991 9.67714 31.5991C10.3297 32.2517 8.6342 32.6746 8.6342 32.6746L5.62128 31.776L6.86345 28.576Z" fill="black"/>
<path d="M9.82555 38.4646C7.65836 38.4097 5.96689 37.8994 4.6495 37.1431C2.07571 35.6773 0.918922 33.2885 0.404569 31.5991C0.0548913 30.4545 0 29.6291 0 29.6291L8.2154 32.9389C8.2154 32.9389 9.15872 33.2438 9.82555 38.4646Z" fill="black"/>
<path d="M35.1081 29.6291C35.0369 30.3427 34.9109 30.9973 34.7442 31.5991C33.8415 34.8682 31.6886 36.58 29.6535 37.4766C27.4782 38.4382 25.4411 38.4626 25.2175 38.4626C25.2033 38.4626 25.1972 38.4626 25.1972 38.4626L27.3867 33.4959C27.3867 33.4959 27.7323 32.9877 28.5842 32.3188H28.5862C28.6777 32.2476 28.7793 32.1724 28.883 32.0972C29.1046 31.9366 29.3567 31.7679 29.6352 31.5971C30.851 30.8672 32.6217 30.0967 35.1081 29.6291Z" fill="black"/>
<path d="M136.002 0H145.167L178.165 38.4646H168.846L136.002 0Z" fill="black"/>
<path d="M168.795 0L136.002 38.4646H145.371L178.165 0H168.795Z" fill="black"/>
<path d="M183.325 0L166.827 19.2323L183.325 38.4646H193L176.5 19.2323L193 0H183.325Z" fill="#FF0000"/>
</svg>
